<svg xmlns="http://www.w3.org/2000/svg" width="1200" height="630" viewBox="0 0 1200 630">
  <!-- TODO(deploy): replace with a designed 1200x630 PNG once the logo is delivered;
       some social crawlers do not render SVG previews. -->
  <defs>
    <linearGradient id="bg" x1="0" y1="0" x2="1" y2="1">
      <stop offset="0" stop-color="#0f6667"/>
      <stop offset="1" stop-color="#16a19f"/>
    </linearGradient>
  </defs>
  <rect width="1200" height="630" fill="url(#bg)"/>
  <circle cx="1050" cy="80" r="220" fill="#ffffff" opacity="0.06"/>
  <circle cx="120" cy="560" r="260" fill="#ffffff" opacity="0.06"/>
  <rect x="80" y="196" width="96" height="96" rx="24" fill="#ffffff"/>
  <path d="M128 216c-6.8 0-9.8 3.8-14.3 3.8s-8.3-3-8.3 5.2c0 6 2.3 10.5 3.8 16.5s3.8 25.5 9 25.5c4.5 0 3.8-13.5 9.8-13.5s5.3 13.5 9.8 13.5c5.3 0 7.5-19.5 9-25.5s3.8-10.5 3.8-16.5c0-8.2-3.8-5.2-8.3-5.2S134.8 216 128 216z" fill="#0e8181"/>
  <text x="80" y="370" font-family="Segoe UI, Arial, sans-serif" font-size="58" font-weight="700" fill="#ffffff">Dr. Patil&#8217;s Dental Clinic</text>
  <text x="80" y="440" font-family="Segoe UI, Arial, sans-serif" font-size="40" font-weight="600" fill="#c8f5ef">&amp; Implant Centre</text>
  <text x="80" y="510" font-family="Segoe UI, Arial, sans-serif" font-size="28" fill="#effcfa" opacity="0.9">Trusted Family Dentist in Moshi, Pune</text>
</svg>
